<svg width="173" height="36" viewBox="0 0 173 36" fill="none" xmlns="http://www.w3.org/2000/svg">
<g filter="url(#filter0_i_0_1036)">
<path d="M32.4393 30.5906C32.4393 30.6759 32.418 30.7559 32.3753 30.8306C32.3433 30.9053 32.274 30.9426 32.1673 30.9426H31.3513V34.2546C30.978 34.3826 30.61 34.5266 30.2473 34.6866C29.8846 34.8359 29.522 34.9959 29.1593 35.1666C28.7966 35.3373 28.402 35.4439 27.9753 35.4866C27.5593 35.5293 27.1486 35.5506 26.7433 35.5506C26.3913 35.5506 26.0126 35.5133 25.6073 35.4386C25.202 35.3639 24.8073 35.2573 24.4233 35.1186C24.0393 34.9693 23.7033 34.7933 23.4153 34.5906C22.6366 34.0253 22.066 33.3053 21.7033 32.4306C21.3513 31.5559 21.1753 30.6546 21.1753 29.7266C21.1753 28.8839 21.3033 28.0946 21.5593 27.3586C21.826 26.6226 22.2046 25.9773 22.6953 25.4226C23.1966 24.8679 23.794 24.4359 24.4873 24.1266C25.1913 23.8066 25.9806 23.6466 26.8553 23.6466C27.5486 23.6466 28.2313 23.7533 28.9033 23.9666C28.9993 23.9986 29.1433 24.0519 29.3353 24.1266C29.538 24.2013 29.7353 24.2759 29.9273 24.3506C30.13 24.4146 30.2633 24.4466 30.3273 24.4466C30.4873 24.4466 30.5993 24.3879 30.6633 24.2706C30.7273 24.1533 30.786 24.0359 30.8393 23.9186C30.9033 23.8013 30.994 23.7426 31.1113 23.7426C31.1753 23.7426 31.234 23.7586 31.2873 23.7906C31.3513 23.8226 31.3833 23.8759 31.3833 23.9506C31.3833 24.4413 31.3886 24.9266 31.3993 25.4066C31.4206 25.8866 31.4313 26.3719 31.4313 26.8626C31.4313 27.0119 31.378 27.1346 31.2713 27.2306C31.1753 27.3266 31.0526 27.3746 30.9033 27.3746C30.722 27.3746 30.594 27.3373 30.5193 27.2626C30.4553 27.1773 30.3966 27.0546 30.3433 26.8946C30.0766 26.0733 29.6606 25.4119 29.0953 24.9106C28.5406 24.4093 27.8153 24.1586 26.9193 24.1586C26.4926 24.1586 26.1033 24.2599 25.7513 24.4626C25.3993 24.6653 25.09 24.9319 24.8233 25.2626C24.5673 25.5826 24.3486 25.9346 24.1673 26.3186C23.986 26.7026 23.8473 27.0759 23.7513 27.4386C23.6553 27.8013 23.586 28.1746 23.5433 28.5586C23.5006 28.9426 23.4793 29.3266 23.4793 29.7106C23.4793 30.0839 23.5006 30.4573 23.5433 30.8306C23.586 31.2039 23.6606 31.5719 23.7673 31.9346C23.906 32.4253 24.114 32.8946 24.3913 33.3426C24.6686 33.7906 25.0153 34.1586 25.4313 34.4466C25.858 34.7346 26.3486 34.8786 26.9033 34.8786C27.106 34.8786 27.3353 34.8519 27.5913 34.7986C27.858 34.7453 28.1086 34.6653 28.3433 34.5586C28.5886 34.4519 28.7913 34.3133 28.9513 34.1426C29.1113 33.9613 29.1913 33.7426 29.1913 33.4866V31.3746C29.1913 31.2893 29.1646 31.2039 29.1113 31.1186C29.0686 31.0333 28.9993 30.9906 28.9033 30.9906C28.754 30.9906 28.5993 31.0013 28.4393 31.0226C28.29 31.0333 28.1406 31.0386 27.9913 31.0386C27.906 31.0386 27.8313 30.9906 27.7673 30.8946C27.714 30.7879 27.6873 30.6973 27.6873 30.6226C27.6873 30.5479 27.7193 30.4839 27.7833 30.4306C27.8473 30.3773 27.9166 30.3506 27.9913 30.3506C28.1406 30.3506 28.29 30.3559 28.4393 30.3666C28.5993 30.3666 28.754 30.3666 28.9033 30.3666C29.266 30.3666 29.6233 30.3666 29.9753 30.3666C30.338 30.3559 30.7006 30.3453 31.0633 30.3346C31.2553 30.3239 31.4473 30.3133 31.6393 30.3026C31.8313 30.2813 32.0233 30.2706 32.2153 30.2706C32.3006 30.2706 32.3593 30.3079 32.3913 30.3826C32.4233 30.4466 32.4393 30.5159 32.4393 30.5906ZM40.1713 26.6546C40.1713 25.8653 39.9953 25.2573 39.6433 24.8306C39.302 24.4039 38.7206 24.1906 37.8993 24.1906H37.6113C37.526 24.1906 37.4353 24.1906 37.3393 24.1906C37.2433 24.1906 37.1526 24.2013 37.0673 24.2226C36.9606 24.2546 36.8913 24.3026 36.8593 24.3666C36.8273 24.4306 36.8113 24.5213 36.8113 24.6386C36.8113 25.2573 36.806 25.8759 36.7953 26.4946C36.7953 27.1026 36.7953 27.7213 36.7953 28.3506V29.0066C36.87 29.0173 36.9446 29.0279 37.0193 29.0386C37.094 29.0386 37.1686 29.0386 37.2433 29.0386C37.798 29.0386 38.294 28.9746 38.7313 28.8466C39.1793 28.7079 39.5313 28.4679 39.7873 28.1266C40.0433 27.7746 40.1713 27.2839 40.1713 26.6546ZM44.2353 35.2306C44.2353 35.3266 44.1446 35.4013 43.9633 35.4546C43.7926 35.4973 43.5846 35.5239 43.3393 35.5346C43.1046 35.5559 42.8806 35.5666 42.6673 35.5666C42.454 35.5773 42.31 35.5826 42.2353 35.5826C41.83 35.5826 41.462 35.5399 41.1313 35.4546C40.8113 35.3693 40.5393 35.1293 40.3153 34.7346C39.8246 33.8813 39.3446 33.0173 38.8753 32.1426C38.406 31.2573 37.9366 30.3773 37.4673 29.5026L36.7953 29.4866C36.7953 30.3293 36.7953 31.1773 36.7953 32.0306C36.806 32.8733 36.8113 33.7213 36.8113 34.5746C36.8113 34.6706 36.838 34.7666 36.8913 34.8626C36.9446 34.9479 37.0246 34.9906 37.1313 34.9906C37.2593 34.9906 37.3873 34.9853 37.5153 34.9746C37.6433 34.9639 37.7713 34.9586 37.8993 34.9586C37.9526 34.9586 38.0006 34.9959 38.0433 35.0706C38.0966 35.1346 38.1233 35.1933 38.1233 35.2466C38.1233 35.3213 38.102 35.3853 38.0593 35.4386C38.0273 35.4919 37.974 35.5186 37.8993 35.5186C37.8033 35.5186 37.7126 35.5133 37.6273 35.5026C37.542 35.4919 37.4566 35.4866 37.3713 35.4866C37.1793 35.4653 36.9873 35.4546 36.7953 35.4546C36.6033 35.4546 36.4113 35.4546 36.2193 35.4546C35.7606 35.4546 35.2966 35.4653 34.8273 35.4866C34.3686 35.5079 33.9046 35.5186 33.4353 35.5186C33.254 35.5186 33.1633 35.4226 33.1633 35.2306C33.1633 35.1559 33.1953 35.0973 33.2593 35.0546C33.3233 35.0013 33.3926 34.9746 33.4673 34.9746C33.574 34.9746 33.6806 34.9799 33.7873 34.9906C33.894 35.0013 34.0006 35.0066 34.1073 35.0066C34.2566 35.0066 34.3846 34.9799 34.4913 34.9266C34.598 34.8733 34.6513 34.7613 34.6513 34.5906V24.7026C34.6513 24.5426 34.6193 24.4359 34.5553 24.3826C34.4913 24.3186 34.3846 24.2866 34.2353 24.2866C34.1286 24.2866 34.022 24.2919 33.9153 24.3026C33.8086 24.3133 33.702 24.3186 33.5953 24.3186C33.5206 24.3186 33.4406 24.2919 33.3553 24.2386C33.2806 24.1853 33.2433 24.1159 33.2433 24.0306C33.2433 23.8279 33.3606 23.7266 33.5953 23.7266C33.702 23.7266 33.8086 23.7319 33.9153 23.7426C34.022 23.7426 34.1286 23.7479 34.2353 23.7586C34.4486 23.7693 34.6673 23.7799 34.8913 23.7906C35.1153 23.7906 35.334 23.7906 35.5473 23.7906C36.0593 23.7906 36.566 23.7746 37.0673 23.7426C37.5793 23.6999 38.086 23.6786 38.5873 23.6786C39.0246 23.6786 39.4726 23.7213 39.9313 23.8066C40.39 23.8813 40.8166 24.0199 41.2113 24.2226C41.6166 24.4253 41.942 24.7026 42.1873 25.0546C42.4326 25.3959 42.5553 25.8333 42.5553 26.3666C42.5553 27.0173 42.422 27.5399 42.1553 27.9346C41.8993 28.3293 41.542 28.6333 41.0833 28.8466C40.6353 29.0599 40.1233 29.2253 39.5473 29.3426C40.0166 30.1959 40.5233 31.0333 41.0673 31.8546C41.6113 32.6759 42.1606 33.4866 42.7153 34.2866C42.8646 34.4893 43.0566 34.6706 43.2913 34.8306C43.526 34.9799 43.766 35.0546 44.0113 35.0546C44.086 35.0546 44.1393 35.0653 44.1713 35.0866C44.214 35.0973 44.2353 35.1453 44.2353 35.2306ZM51.4998 30.7026C51.2011 29.7959 50.8918 28.8946 50.5718 27.9986C50.2625 27.1026 49.9638 26.2013 49.6758 25.2946C49.3665 26.2013 49.0571 27.1026 48.7478 27.9986C48.4491 28.8946 48.1451 29.7959 47.8358 30.7026H51.4998ZM56.2998 35.2946C56.2998 35.4546 56.1985 35.5346 55.9958 35.5346C55.9318 35.5346 55.8678 35.5346 55.8038 35.5346C55.7398 35.5346 55.6705 35.5293 55.5958 35.5186C55.3291 35.4973 55.0518 35.4866 54.7638 35.4866C54.4865 35.4866 54.2091 35.4866 53.9318 35.4866C53.5798 35.4866 53.2278 35.4866 52.8758 35.4866C52.5238 35.4866 52.1665 35.4973 51.8038 35.5186C51.7611 35.5293 51.7185 35.5346 51.6758 35.5346C51.6331 35.5346 51.5905 35.5346 51.5478 35.5346C51.3985 35.5346 51.3238 35.4599 51.3238 35.3106C51.3238 35.1826 51.3665 35.1079 51.4518 35.0866C51.5478 35.0546 51.6545 35.0439 51.7718 35.0546C51.8891 35.0653 51.9851 35.0706 52.0598 35.0706C52.2518 35.0706 52.3905 35.0333 52.4758 34.9586C52.5718 34.8733 52.6198 34.7293 52.6198 34.5266C52.6198 34.4093 52.5825 34.2066 52.5078 33.9186C52.4331 33.6199 52.3425 33.2946 52.2358 32.9426C52.1291 32.5906 52.0225 32.2653 51.9158 31.9666C51.8198 31.6573 51.7505 31.4386 51.7078 31.3106H47.6278C47.6065 31.3746 47.5585 31.5186 47.4838 31.7426C47.4091 31.9666 47.3185 32.2279 47.2118 32.5266C47.1158 32.8253 47.0198 33.1186 46.9238 33.4066C46.8278 33.6946 46.7478 33.9453 46.6838 34.1586C46.6198 34.3613 46.5878 34.4839 46.5878 34.5266C46.5878 34.7293 46.6411 34.8679 46.7478 34.9426C46.8545 35.0173 46.9878 35.0599 47.1478 35.0706C47.3078 35.0706 47.4625 35.0706 47.6118 35.0706C47.6651 35.0706 47.7078 35.1079 47.7398 35.1826C47.7718 35.2466 47.7878 35.3053 47.7878 35.3586C47.7878 35.4226 47.7611 35.4706 47.7078 35.5026C47.6651 35.5346 47.6171 35.5506 47.5638 35.5506C47.2118 35.5506 46.8598 35.5399 46.5078 35.5186C46.1665 35.5079 45.8251 35.5026 45.4838 35.5026C45.3131 35.5026 45.1425 35.5079 44.9718 35.5186C44.8011 35.5293 44.6251 35.5346 44.4438 35.5346C44.3905 35.5346 44.3371 35.5133 44.2838 35.4706C44.2305 35.4279 44.2038 35.3799 44.2038 35.3266C44.2038 35.2093 44.2465 35.1346 44.3318 35.1026C44.4171 35.0706 44.5131 35.0599 44.6198 35.0706C44.7371 35.0706 44.8331 35.0706 44.9078 35.0706C45.0465 35.0706 45.1585 35.0173 45.2438 34.9106C45.3398 34.7933 45.4091 34.6813 45.4518 34.5746C46.0811 32.9959 46.6785 31.4119 47.2438 29.8226C47.8091 28.2226 48.3585 26.6173 48.8918 25.0066C48.9345 24.8893 48.9878 24.7239 49.0518 24.5106C49.1158 24.2973 49.1478 24.1373 49.1478 24.0306C49.1478 23.9666 49.1318 23.9133 49.0998 23.8706C49.0785 23.8173 49.0678 23.7693 49.0678 23.7266C49.0678 23.6839 49.1211 23.6519 49.2278 23.6306C49.3345 23.6093 49.4465 23.5933 49.5638 23.5826C49.6811 23.5719 49.7558 23.5666 49.7878 23.5666C50.0118 23.5346 50.2305 23.5026 50.4438 23.4706C50.6678 23.4386 50.8918 23.4119 51.1158 23.3906L55.0358 34.4466C55.1211 34.7026 55.2331 34.8679 55.3718 34.9426C55.5211 35.0066 55.7185 35.0386 55.9638 35.0386C56.0598 35.0386 56.1398 35.0546 56.2038 35.0866C56.2678 35.1079 56.2998 35.1773 56.2998 35.2946ZM69.3624 24.0146C69.3624 24.0893 69.3411 24.1586 69.2984 24.2226C69.2558 24.2866 69.1918 24.3186 69.1064 24.3186C68.9678 24.3186 68.8291 24.3133 68.6904 24.3026C68.5624 24.2919 68.4238 24.2866 68.2744 24.2866C68.1678 24.2866 68.0984 24.3346 68.0664 24.4306C68.0344 24.5266 68.0184 24.6173 68.0184 24.7026C68.0184 25.3853 68.0131 26.0679 68.0024 26.7506C68.0024 27.4226 68.0024 28.1053 68.0024 28.7986C68.0024 29.7693 68.0024 30.7399 68.0024 31.7106C68.0131 32.6706 68.0184 33.6359 68.0184 34.6066C68.0184 34.6919 68.0344 34.7826 68.0664 34.8786C68.0984 34.9746 68.1678 35.0226 68.2744 35.0226C68.4238 35.0226 68.5624 35.0173 68.6904 35.0066C68.8291 34.9959 68.9678 34.9906 69.1064 34.9906C69.1918 34.9906 69.2504 35.0279 69.2824 35.1026C69.3144 35.1773 69.3304 35.2519 69.3304 35.3266C69.3304 35.4866 69.2451 35.5666 69.0744 35.5666C68.9891 35.5666 68.9038 35.5613 68.8184 35.5506C68.7331 35.5399 68.6478 35.5346 68.5624 35.5346C68.4024 35.5133 68.2424 35.5026 68.0824 35.5026C67.9224 35.5026 67.7624 35.5026 67.6024 35.5026C67.2291 35.5026 66.8558 35.5026 66.4824 35.5026C66.1198 35.5026 65.7518 35.5133 65.3784 35.5346C65.2718 35.5346 65.1598 35.5399 65.0424 35.5506C64.9358 35.5613 64.8238 35.5666 64.7064 35.5666C64.5998 35.5666 64.5251 35.5346 64.4824 35.4706C64.4504 35.4066 64.4344 35.3319 64.4344 35.2466C64.4344 35.1613 64.4664 35.0973 64.5304 35.0546C64.5944 35.0119 64.6638 34.9906 64.7384 34.9906C64.8558 34.9906 64.9624 34.9959 65.0584 35.0066C65.1651 35.0173 65.2718 35.0226 65.3784 35.0226C65.5384 35.0226 65.6451 34.9959 65.6984 34.9426C65.7624 34.8786 65.7944 34.7666 65.7944 34.6066V29.6306H60.5304V34.6386C60.5304 34.7986 60.5624 34.9106 60.6264 34.9746C60.6904 35.0279 60.7971 35.0546 60.9464 35.0546C61.0531 35.0546 61.1598 35.0493 61.2664 35.0386C61.3731 35.0279 61.4798 35.0226 61.5864 35.0226C61.6718 35.0226 61.7464 35.0439 61.8104 35.0866C61.8744 35.1186 61.9064 35.1826 61.9064 35.2786C61.9064 35.4813 61.8104 35.5826 61.6184 35.5826C61.2238 35.5826 60.8291 35.5666 60.4344 35.5346C60.0504 35.5133 59.6664 35.5026 59.2824 35.5026C59.0904 35.5026 58.8931 35.5026 58.6904 35.5026C58.4984 35.5026 58.3064 35.5079 58.1144 35.5186C57.9758 35.5293 57.8371 35.5399 57.6984 35.5506C57.5704 35.5719 57.4371 35.5826 57.2984 35.5826C57.2238 35.5826 57.1651 35.5453 57.1224 35.4706C57.0904 35.4066 57.0744 35.3479 57.0744 35.2946C57.0744 35.2413 57.0958 35.1826 57.1384 35.1186C57.1811 35.0546 57.2344 35.0226 57.2984 35.0226C57.4371 35.0226 57.5704 35.0279 57.6984 35.0386C57.8371 35.0493 57.9758 35.0546 58.1144 35.0546C58.2318 35.0546 58.3064 35.0066 58.3384 34.9106C58.3704 34.8146 58.3864 34.7239 58.3864 34.6386C58.3864 33.5826 58.3864 32.5266 58.3864 31.4706C58.3864 30.4146 58.3864 29.3586 58.3864 28.3026C58.3864 27.7053 58.3864 27.1079 58.3864 26.5106C58.3864 25.9026 58.3864 25.3053 58.3864 24.7186C58.3864 24.6333 58.3704 24.5426 58.3384 24.4466C58.3064 24.3506 58.2318 24.3026 58.1144 24.3026C57.9758 24.3026 57.8371 24.3079 57.6984 24.3186C57.5704 24.3293 57.4371 24.3346 57.2984 24.3346C57.1278 24.3346 57.0424 24.2386 57.0424 24.0466C57.0424 23.9719 57.0638 23.9026 57.1064 23.8386C57.1491 23.7746 57.2131 23.7426 57.2984 23.7426C57.5758 23.7426 57.8478 23.7533 58.1144 23.7746C58.3918 23.7959 58.6691 23.8066 58.9464 23.8066C59.3838 23.8066 59.8211 23.7959 60.2584 23.7746C60.7064 23.7533 61.1491 23.7426 61.5864 23.7426C61.7891 23.7426 61.8904 23.8439 61.8904 24.0466C61.8904 24.1853 61.8318 24.2653 61.7144 24.2866C61.6078 24.3079 61.5064 24.3186 61.4104 24.3186C61.3358 24.3186 61.2611 24.3186 61.1864 24.3186C61.1118 24.3079 61.0318 24.3026 60.9464 24.3026C60.8078 24.3026 60.7011 24.3453 60.6264 24.4306C60.5624 24.5159 60.5304 24.6279 60.5304 24.7666V29.1026H65.7944V24.7026C65.7944 24.5426 65.7624 24.4359 65.6984 24.3826C65.6451 24.3186 65.5384 24.2866 65.3784 24.2866C65.2718 24.2866 65.1651 24.2919 65.0584 24.3026C64.9624 24.3133 64.8558 24.3186 64.7384 24.3186C64.6744 24.3186 64.6051 24.2919 64.5304 24.2386C64.4664 24.1853 64.4344 24.1213 64.4344 24.0466C64.4344 23.8439 64.5358 23.7426 64.7384 23.7426C64.8664 23.7426 64.9944 23.7479 65.1224 23.7586C65.2504 23.7693 65.3784 23.7799 65.5064 23.7906C65.7518 23.8013 65.9971 23.8119 66.2424 23.8226C66.4878 23.8226 66.7331 23.8226 66.9784 23.8226C67.3304 23.8226 67.6824 23.8119 68.0344 23.7906C68.3971 23.7586 68.7544 23.7426 69.1064 23.7426C69.1918 23.7426 69.2558 23.7693 69.2984 23.8226C69.3411 23.8759 69.3624 23.9399 69.3624 24.0146ZM77.281 30.7026C76.9824 29.7959 76.673 28.8946 76.353 27.9986C76.0437 27.1026 75.745 26.2013 75.457 25.2946C75.1477 26.2013 74.8384 27.1026 74.529 27.9986C74.2304 28.8946 73.9264 29.7959 73.617 30.7026H77.281ZM82.081 35.2946C82.081 35.4546 81.9797 35.5346 81.777 35.5346C81.713 35.5346 81.649 35.5346 81.585 35.5346C81.521 35.5346 81.4517 35.5293 81.377 35.5186C81.1104 35.4973 80.833 35.4866 80.545 35.4866C80.2677 35.4866 79.9904 35.4866 79.713 35.4866C79.361 35.4866 79.009 35.4866 78.657 35.4866C78.305 35.4866 77.9477 35.4973 77.585 35.5186C77.5424 35.5293 77.4997 35.5346 77.457 35.5346C77.4144 35.5346 77.3717 35.5346 77.329 35.5346C77.1797 35.5346 77.105 35.4599 77.105 35.3106C77.105 35.1826 77.1477 35.1079 77.233 35.0866C77.329 35.0546 77.4357 35.0439 77.553 35.0546C77.6704 35.0653 77.7664 35.0706 77.841 35.0706C78.033 35.0706 78.1717 35.0333 78.257 34.9586C78.353 34.8733 78.401 34.7293 78.401 34.5266C78.401 34.4093 78.3637 34.2066 78.289 33.9186C78.2144 33.6199 78.1237 33.2946 78.017 32.9426C77.9104 32.5906 77.8037 32.2653 77.697 31.9666C77.601 31.6573 77.5317 31.4386 77.489 31.3106H73.409C73.3877 31.3746 73.3397 31.5186 73.265 31.7426C73.1904 31.9666 73.0997 32.2279 72.993 32.5266C72.897 32.8253 72.801 33.1186 72.705 33.4066C72.609 33.6946 72.529 33.9453 72.465 34.1586C72.401 34.3613 72.369 34.4839 72.369 34.5266C72.369 34.7293 72.4224 34.8679 72.529 34.9426C72.6357 35.0173 72.769 35.0599 72.929 35.0706C73.089 35.0706 73.2437 35.0706 73.393 35.0706C73.4464 35.0706 73.489 35.1079 73.521 35.1826C73.553 35.2466 73.569 35.3053 73.569 35.3586C73.569 35.4226 73.5424 35.4706 73.489 35.5026C73.4464 35.5346 73.3984 35.5506 73.345 35.5506C72.993 35.5506 72.641 35.5399 72.289 35.5186C71.9477 35.5079 71.6064 35.5026 71.265 35.5026C71.0944 35.5026 70.9237 35.5079 70.753 35.5186C70.5824 35.5293 70.4064 35.5346 70.225 35.5346C70.1717 35.5346 70.1184 35.5133 70.065 35.4706C70.0117 35.4279 69.985 35.3799 69.985 35.3266C69.985 35.2093 70.0277 35.1346 70.113 35.1026C70.1984 35.0706 70.2944 35.0599 70.401 35.0706C70.5184 35.0706 70.6144 35.0706 70.689 35.0706C70.8277 35.0706 70.9397 35.0173 71.025 34.9106C71.121 34.7933 71.1904 34.6813 71.233 34.5746C71.8624 32.9959 72.4597 31.4119 73.025 29.8226C73.5904 28.2226 74.1397 26.6173 74.673 25.0066C74.7157 24.8893 74.769 24.7239 74.833 24.5106C74.897 24.2973 74.929 24.1373 74.929 24.0306C74.929 23.9666 74.913 23.9133 74.881 23.8706C74.8597 23.8173 74.849 23.7693 74.849 23.7266C74.849 23.6839 74.9024 23.6519 75.009 23.6306C75.1157 23.6093 75.2277 23.5933 75.345 23.5826C75.4624 23.5719 75.537 23.5666 75.569 23.5666C75.793 23.5346 76.0117 23.5026 76.225 23.4706C76.449 23.4386 76.673 23.4119 76.897 23.3906L80.817 34.4466C80.9024 34.7026 81.0144 34.8679 81.153 34.9426C81.3024 35.0066 81.4997 35.0386 81.745 35.0386C81.841 35.0386 81.921 35.0546 81.985 35.0866C82.049 35.1079 82.081 35.1773 82.081 35.2946ZM94.3117 32.2386C94.3117 31.8119 94.2637 31.3906 94.1677 30.9746C94.0823 30.5479 93.9063 30.1906 93.6397 29.9026C93.3837 29.6146 92.989 29.4706 92.4557 29.4706C92.093 29.4706 91.7303 29.4813 91.3677 29.5026C91.0157 29.5133 90.6583 29.5186 90.2957 29.5186V34.5266C90.2957 34.8253 90.3703 35.0013 90.5197 35.0546C90.6797 35.1079 90.877 35.1346 91.1117 35.1346C91.2397 35.1346 91.3677 35.1346 91.4957 35.1346C91.6343 35.1346 91.7677 35.1293 91.8957 35.1186C92.429 35.0866 92.8717 34.9373 93.2237 34.6706C93.5863 34.4039 93.8583 34.0573 94.0397 33.6306C94.221 33.2039 94.3117 32.7399 94.3117 32.2386ZM93.5117 26.5266C93.5117 25.8973 93.4157 25.4226 93.2237 25.1026C93.0423 24.7719 92.7597 24.5533 92.3757 24.4466C91.9917 24.3293 91.5117 24.2706 90.9357 24.2706C90.829 24.2706 90.7223 24.2759 90.6157 24.2866C90.509 24.2866 90.4023 24.2919 90.2957 24.3026V29.0386H90.7597C90.973 29.0386 91.2077 29.0333 91.4637 29.0226C91.7197 29.0013 91.965 28.9533 92.1997 28.8786C92.445 28.8039 92.6477 28.6866 92.8077 28.5266C93.053 28.2813 93.229 27.9719 93.3357 27.5986C93.453 27.2253 93.5117 26.8679 93.5117 26.5266ZM96.5997 31.9666C96.5997 32.6919 96.429 33.3373 96.0877 33.9026C95.757 34.4573 95.2503 34.8786 94.5677 35.1666C94.1837 35.3373 93.7517 35.4439 93.2717 35.4866C92.8023 35.5399 92.3597 35.5666 91.9437 35.5666C91.8477 35.5666 91.7517 35.5666 91.6557 35.5666C91.5597 35.5666 91.4637 35.5613 91.3677 35.5506C90.589 35.5186 89.805 35.5026 89.0157 35.5026C88.717 35.5026 88.4183 35.5133 88.1197 35.5346C87.821 35.5666 87.517 35.5826 87.2077 35.5826C87.165 35.5826 87.1277 35.5613 87.0957 35.5186C87.0637 35.4866 87.0477 35.4493 87.0477 35.4066C87.0477 35.2786 87.0957 35.2039 87.1917 35.1826C87.2983 35.1506 87.421 35.1239 87.5597 35.1026C87.6983 35.0813 87.8263 35.0173 87.9437 34.9106C88.061 34.8039 88.1303 34.6013 88.1517 34.3026C88.1623 34.1746 88.1677 34.0466 88.1677 33.9186C88.1677 33.7906 88.1677 33.6626 88.1677 33.5346C88.1677 32.1799 88.1623 30.8306 88.1517 29.4866C88.1517 28.1319 88.1517 26.7773 88.1517 25.4226C88.1517 24.9533 88.0717 24.6653 87.9117 24.5586C87.7517 24.4519 87.453 24.3986 87.0157 24.3986C86.941 24.3986 86.8717 24.3719 86.8077 24.3186C86.7543 24.2653 86.7277 24.2013 86.7277 24.1266C86.7277 23.9239 86.8397 23.8226 87.0637 23.8226C87.277 23.8226 87.4957 23.8333 87.7197 23.8546C87.9437 23.8759 88.1623 23.8866 88.3757 23.8866C88.9197 23.8866 89.4637 23.8706 90.0077 23.8386C90.5517 23.7959 91.0957 23.7533 91.6397 23.7106C91.7463 23.6999 91.8477 23.6946 91.9437 23.6946C92.0503 23.6839 92.1517 23.6786 92.2477 23.6786C92.8557 23.6786 93.4263 23.7533 93.9597 23.9026C94.5037 24.0413 94.941 24.3026 95.2717 24.6866C95.613 25.0706 95.7837 25.6253 95.7837 26.3506C95.7837 26.7666 95.6717 27.1613 95.4477 27.5346C95.2343 27.9079 94.9623 28.2173 94.6317 28.4626C94.525 28.5586 94.4077 28.6439 94.2797 28.7186C94.1517 28.7826 94.0183 28.8466 93.8797 28.9106C93.8583 28.9213 93.8157 28.9426 93.7517 28.9746C93.6983 28.9959 93.6717 29.0279 93.6717 29.0706C93.6717 29.1026 93.6983 29.1293 93.7517 29.1506C93.8157 29.1613 93.8583 29.1719 93.8797 29.1826C94.0503 29.2253 94.2157 29.2733 94.3757 29.3266C94.5357 29.3693 94.6957 29.4333 94.8557 29.5186C95.3463 29.7533 95.757 30.0786 96.0877 30.4946C96.429 30.9106 96.5997 31.4013 96.5997 31.9666ZM109.261 24.0146C109.261 24.0893 109.234 24.1639 109.181 24.2386C109.138 24.3026 109.074 24.3346 108.989 24.3346C108.85 24.3346 108.712 24.3346 108.573 24.3346C108.434 24.3239 108.296 24.3186 108.157 24.3186C108.018 24.3186 107.933 24.3879 107.901 24.5266C107.869 24.6546 107.853 24.7719 107.853 24.8786C107.853 24.9319 107.853 24.9906 107.853 25.0546C107.864 25.1079 107.869 25.1613 107.869 25.2146C107.869 26.1853 107.869 27.1506 107.869 28.1106C107.88 29.0706 107.885 30.0306 107.885 30.9906C107.885 32.3986 107.538 33.5133 106.845 34.3346C106.152 35.1453 105.074 35.5506 103.613 35.5506C102.173 35.5506 101.053 35.2039 100.253 34.5106C99.453 33.8173 99.053 32.7239 99.053 31.2306V30.5106C99.053 29.5933 99.053 28.6759 99.053 27.7586C99.0637 26.8306 99.069 25.9026 99.069 24.9746C99.069 24.8786 99.0584 24.7506 99.037 24.5906C99.0157 24.4199 98.941 24.3293 98.813 24.3186C98.6744 24.3079 98.5304 24.3079 98.381 24.3186C98.2424 24.3293 98.1037 24.3346 97.965 24.3346C97.8904 24.3346 97.821 24.3079 97.757 24.2546C97.693 24.1906 97.661 24.1213 97.661 24.0466C97.661 23.9613 97.6877 23.8866 97.741 23.8226C97.805 23.7586 97.8797 23.7266 97.965 23.7266C98.093 23.7266 98.2157 23.7319 98.333 23.7426C98.461 23.7533 98.5837 23.7639 98.701 23.7746C98.9464 23.7853 99.1917 23.7959 99.437 23.8066C99.6824 23.8066 99.9224 23.8066 100.157 23.8066C100.402 23.8066 100.637 23.8066 100.861 23.8066C101.096 23.8066 101.33 23.8013 101.565 23.7906C101.714 23.7799 101.858 23.7693 101.997 23.7586C102.146 23.7373 102.29 23.7266 102.429 23.7266C102.514 23.7266 102.578 23.7586 102.621 23.8226C102.674 23.8866 102.701 23.9613 102.701 24.0466C102.701 24.1213 102.674 24.1906 102.621 24.2546C102.578 24.3079 102.514 24.3346 102.429 24.3346C102.29 24.3346 102.152 24.3293 102.013 24.3186C101.885 24.3079 101.752 24.3026 101.613 24.3026C101.506 24.3026 101.437 24.3506 101.405 24.4466C101.373 24.5319 101.352 24.6173 101.341 24.7026C101.33 24.8733 101.325 25.0439 101.325 25.2146C101.336 25.3853 101.341 25.5559 101.341 25.7266C101.341 26.6866 101.33 27.6466 101.309 28.6066C101.298 29.5559 101.293 30.5106 101.293 31.4706C101.293 31.9293 101.309 32.3666 101.341 32.7826C101.384 33.1879 101.48 33.5506 101.629 33.8706C101.778 34.1906 102.013 34.4413 102.333 34.6226C102.664 34.8039 103.117 34.8946 103.693 34.8946C104.461 34.8946 105.074 34.7186 105.533 34.3666C105.992 34.0039 106.322 33.5346 106.525 32.9586C106.728 32.3719 106.829 31.7373 106.829 31.0546C106.829 29.9986 106.808 28.9426 106.765 27.8866C106.722 26.8306 106.701 25.7746 106.701 24.7186C106.701 24.5586 106.664 24.4519 106.589 24.3986C106.514 24.3346 106.402 24.3026 106.253 24.3026C106.146 24.3026 106.04 24.3079 105.933 24.3186C105.837 24.3293 105.73 24.3346 105.613 24.3346C105.538 24.3346 105.469 24.3079 105.405 24.2546C105.341 24.2013 105.309 24.1319 105.309 24.0466C105.309 23.9613 105.336 23.8866 105.389 23.8226C105.453 23.7586 105.528 23.7266 105.613 23.7266C105.784 23.7266 105.949 23.7373 106.109 23.7586C106.269 23.7693 106.434 23.7799 106.605 23.7906C106.712 23.8013 106.818 23.8066 106.925 23.8066C107.032 23.8066 107.138 23.8066 107.245 23.8066C107.362 23.8066 107.48 23.8066 107.597 23.8066C107.725 23.8066 107.848 23.8013 107.965 23.7906C108.136 23.7906 108.301 23.7799 108.461 23.7586C108.632 23.7373 108.802 23.7266 108.973 23.7266C109.165 23.7266 109.261 23.8226 109.261 24.0146ZM114.987 24.0466C114.987 24.2279 114.901 24.3186 114.731 24.3186C114.603 24.3186 114.469 24.3186 114.331 24.3186C114.203 24.3079 114.075 24.3026 113.947 24.3026C113.84 24.3026 113.765 24.3506 113.723 24.4466C113.68 24.5319 113.659 24.6226 113.659 24.7186C113.659 25.0919 113.653 25.4706 113.643 25.8546C113.643 26.2279 113.643 26.6013 113.643 26.9746C113.643 28.1479 113.643 29.3266 113.643 30.5106C113.653 31.6839 113.659 32.8573 113.659 34.0306C113.659 34.1053 113.653 34.2226 113.643 34.3826C113.632 34.5426 113.643 34.6919 113.675 34.8306C113.717 34.9586 113.797 35.0226 113.915 35.0226C114.053 35.0226 114.192 35.0173 114.331 35.0066C114.469 34.9959 114.608 34.9906 114.747 34.9906C114.821 34.9906 114.875 35.0226 114.907 35.0866C114.939 35.1399 114.955 35.2039 114.955 35.2786C114.955 35.3533 114.928 35.4173 114.875 35.4706C114.832 35.5346 114.768 35.5666 114.683 35.5666C114.32 35.5666 113.957 35.5613 113.595 35.5506C113.243 35.5399 112.885 35.5346 112.523 35.5346C112.16 35.5346 111.797 35.5399 111.435 35.5506C111.072 35.5613 110.709 35.5666 110.347 35.5666C110.24 35.5666 110.171 35.5453 110.139 35.5026C110.107 35.4599 110.091 35.3906 110.091 35.2946C110.091 35.2093 110.107 35.1399 110.139 35.0866C110.181 35.0226 110.245 34.9906 110.331 34.9906C110.448 34.9906 110.565 34.9959 110.683 35.0066C110.8 35.0173 110.912 35.0226 111.019 35.0226C111.168 35.0226 111.269 34.9746 111.323 34.8786C111.376 34.7826 111.408 34.6706 111.419 34.5426C111.429 34.4039 111.435 34.2866 111.435 34.1906L111.451 25.0066C111.451 24.9106 111.44 24.7719 111.419 24.5906C111.397 24.3986 111.323 24.2973 111.195 24.2866C111.163 24.2866 111.131 24.2866 111.099 24.2866C111.077 24.2866 111.051 24.2866 111.019 24.2866C110.912 24.2866 110.805 24.2919 110.699 24.3026C110.603 24.3133 110.501 24.3186 110.395 24.3186C110.192 24.3186 110.091 24.2173 110.091 24.0146C110.091 23.9399 110.112 23.8759 110.155 23.8226C110.208 23.7693 110.272 23.7426 110.347 23.7426C110.805 23.7426 111.259 23.7533 111.707 23.7746C112.165 23.7959 112.624 23.8066 113.083 23.8066C113.36 23.8066 113.637 23.7959 113.915 23.7746C114.203 23.7533 114.485 23.7426 114.763 23.7426C114.848 23.7426 114.907 23.7746 114.939 23.8386C114.971 23.9026 114.987 23.9719 114.987 24.0466ZM126.524 31.7746C126.524 31.9453 126.514 32.1159 126.492 32.2866C126.471 32.4573 126.45 32.6333 126.428 32.8146C126.386 33.1879 126.338 33.5613 126.284 33.9346C126.231 34.3079 126.188 34.6813 126.156 35.0546C126.156 35.1613 126.135 35.2519 126.092 35.3266C126.039 35.4013 125.959 35.4439 125.852 35.4546C125.746 35.4759 125.65 35.4866 125.564 35.4866C125.436 35.4866 125.308 35.4813 125.18 35.4706C125.052 35.4706 124.919 35.4706 124.78 35.4706C124.108 35.4599 123.436 35.4546 122.764 35.4546C122.092 35.4546 121.42 35.4546 120.748 35.4546H118.924C118.69 35.4546 118.455 35.4546 118.22 35.4546C117.996 35.4546 117.767 35.4599 117.532 35.4706C117.415 35.4813 117.298 35.4866 117.18 35.4866C117.063 35.4973 116.946 35.5026 116.828 35.5026C116.732 35.5026 116.647 35.4759 116.572 35.4226C116.508 35.3693 116.476 35.2946 116.476 35.1986C116.476 35.0919 116.508 35.0119 116.572 34.9586C116.647 34.9053 116.727 34.8786 116.812 34.8786C116.898 34.8786 116.983 34.8839 117.068 34.8946C117.164 34.9053 117.255 34.9106 117.34 34.9106C117.511 34.9106 117.644 34.8893 117.74 34.8466C117.836 34.7933 117.884 34.6706 117.884 34.4786C117.884 32.8253 117.884 31.1719 117.884 29.5186C117.884 27.8546 117.879 26.2013 117.868 24.5586C117.868 24.4306 117.842 24.3506 117.788 24.3186C117.746 24.2759 117.666 24.2546 117.548 24.2546C117.431 24.2546 117.308 24.2599 117.18 24.2706C117.063 24.2813 116.94 24.2866 116.812 24.2866C116.738 24.2866 116.668 24.2599 116.604 24.2066C116.54 24.1533 116.508 24.0839 116.508 23.9986C116.508 23.7959 116.615 23.6946 116.828 23.6946C116.946 23.6946 117.068 23.6999 117.196 23.7106C117.324 23.7213 117.452 23.7319 117.58 23.7426C117.836 23.7533 118.087 23.7639 118.332 23.7746C118.588 23.7746 118.844 23.7746 119.1 23.7746C119.314 23.7746 119.522 23.7746 119.724 23.7746C119.938 23.7746 120.146 23.7693 120.348 23.7586C120.498 23.7479 120.642 23.7373 120.78 23.7266C120.919 23.7053 121.058 23.6946 121.196 23.6946C121.367 23.6946 121.452 23.7853 121.452 23.9666C121.452 24.0413 121.431 24.1159 121.388 24.1906C121.346 24.2546 121.282 24.2866 121.196 24.2866C121.058 24.2866 120.919 24.2813 120.78 24.2706C120.652 24.2599 120.514 24.2546 120.364 24.2546C120.247 24.2546 120.172 24.2866 120.14 24.3506C120.119 24.4039 120.108 24.4839 120.108 24.5906C120.108 24.9853 120.103 25.3746 120.092 25.7586C120.092 26.1426 120.092 26.5319 120.092 26.9266C120.092 28.1639 120.092 29.4066 120.092 30.6546C120.103 31.9026 120.108 33.1453 120.108 34.3826C120.108 34.4893 120.135 34.5906 120.188 34.6866C120.242 34.7826 120.322 34.8466 120.428 34.8786C120.567 34.9106 120.711 34.9266 120.86 34.9266C121.01 34.9266 121.154 34.9266 121.292 34.9266C122.092 34.9266 122.786 34.8466 123.372 34.6866C123.959 34.5266 124.455 34.2333 124.86 33.8066C125.276 33.3693 125.618 32.7399 125.884 31.9186C125.916 31.8226 125.959 31.7373 126.012 31.6626C126.066 31.5773 126.146 31.5346 126.252 31.5346C126.316 31.5346 126.375 31.5559 126.428 31.5986C126.492 31.6413 126.524 31.6999 126.524 31.7746ZM136.923 29.4706C136.923 28.8626 136.854 28.2546 136.715 27.6466C136.587 27.0386 136.374 26.4839 136.075 25.9826C135.776 25.4813 135.382 25.0813 134.891 24.7826C134.4 24.4733 133.798 24.3186 133.083 24.3186C132.358 24.3186 131.643 24.3346 130.939 24.3666V34.1586C130.939 34.4359 130.982 34.6333 131.067 34.7506C131.152 34.8679 131.344 34.9266 131.643 34.9266C132.006 34.9266 132.384 34.9106 132.779 34.8786C133.184 34.8466 133.574 34.7773 133.947 34.6706C134.331 34.5533 134.667 34.3826 134.955 34.1586C135.648 33.5933 136.15 32.8893 136.459 32.0466C136.768 31.2039 136.923 30.3453 136.923 29.4706ZM139.243 29.2466C139.243 29.9293 139.142 30.6013 138.939 31.2626C138.736 31.9239 138.438 32.5373 138.043 33.1026C137.659 33.6573 137.179 34.1266 136.603 34.5106C136.23 34.7559 135.792 34.9586 135.291 35.1186C134.79 35.2679 134.278 35.3746 133.755 35.4386C133.243 35.5026 132.763 35.5346 132.315 35.5346C131.942 35.5346 131.568 35.5186 131.195 35.4866C130.832 35.4653 130.464 35.4546 130.091 35.4546C129.824 35.4546 129.552 35.4546 129.275 35.4546C129.008 35.4653 128.736 35.4813 128.459 35.5026C128.352 35.5133 128.251 35.5186 128.155 35.5186C128.059 35.5293 127.963 35.5346 127.867 35.5346C127.675 35.5346 127.579 35.4493 127.579 35.2786C127.579 35.1719 127.627 35.1026 127.723 35.0706C127.819 35.0386 127.926 35.0173 128.043 35.0066C128.16 34.9853 128.251 34.9639 128.315 34.9426C128.496 34.8573 128.614 34.7239 128.667 34.5426C128.72 34.3613 128.747 34.1853 128.747 34.0146C128.747 33.0439 128.747 32.0786 128.747 31.1186C128.747 30.1586 128.747 29.1986 128.747 28.2386C128.747 27.6839 128.747 27.1346 128.747 26.5906C128.758 26.0359 128.747 25.4866 128.715 24.9426C128.715 24.9213 128.71 24.8786 128.699 24.8146C128.699 24.7399 128.699 24.6973 128.699 24.6866C128.667 24.5586 128.582 24.4733 128.443 24.4306C128.304 24.3879 128.155 24.3719 127.995 24.3826C127.835 24.3826 127.702 24.3826 127.595 24.3826C127.51 24.3826 127.43 24.3666 127.355 24.3346C127.28 24.2919 127.243 24.2173 127.243 24.1106C127.243 23.9079 127.344 23.8066 127.547 23.8066C127.814 23.8066 128.075 23.8173 128.331 23.8386C128.598 23.8493 128.864 23.8546 129.131 23.8546C129.888 23.8546 130.646 23.8279 131.403 23.7746C132.171 23.7106 132.934 23.6786 133.691 23.6786C134.843 23.6786 135.835 23.9026 136.667 24.3506C137.499 24.7986 138.134 25.4386 138.571 26.2706C139.019 27.1026 139.243 28.0946 139.243 29.2466ZM150.304 32.7026C150.304 32.8733 150.282 33.0493 150.24 33.2306C150.208 33.4013 150.181 33.5773 150.16 33.7586C150.138 33.9613 150.112 34.1693 150.08 34.3826C150.058 34.5959 150.037 34.8093 150.016 35.0226C149.984 35.1933 149.936 35.3106 149.872 35.3746C149.808 35.4279 149.685 35.4546 149.504 35.4546C148.416 35.4546 147.328 35.4493 146.24 35.4386C145.152 35.4173 144.064 35.4066 142.976 35.4066C142.602 35.4066 142.229 35.4226 141.856 35.4546C141.482 35.4973 141.109 35.5186 140.736 35.5186C140.554 35.5186 140.464 35.4279 140.464 35.2466C140.464 35.0653 140.544 34.9746 140.704 34.9746C140.864 34.9639 141.034 34.9479 141.216 34.9266C141.429 34.9053 141.6 34.8253 141.728 34.6866C141.866 34.5373 141.936 34.2386 141.936 33.7906V25.1666C141.936 24.9959 141.904 24.8306 141.84 24.6706C141.786 24.5106 141.653 24.4306 141.44 24.4306C141.312 24.4306 141.184 24.4359 141.056 24.4466C140.928 24.4466 140.8 24.4466 140.672 24.4466C140.405 24.4466 140.272 24.3186 140.272 24.0626C140.272 23.9346 140.314 23.8546 140.4 23.8226C140.485 23.7799 140.581 23.7586 140.688 23.7586C140.997 23.7586 141.301 23.7693 141.6 23.7906C141.898 23.8013 142.197 23.8066 142.496 23.8066C143.498 23.8066 144.501 23.8013 145.504 23.7906C146.506 23.7693 147.509 23.7586 148.512 23.7586C148.704 23.7586 148.896 23.7533 149.088 23.7426C149.28 23.7213 149.472 23.6999 149.664 23.6786C149.685 23.8493 149.706 24.0199 149.728 24.1906C149.76 24.3613 149.786 24.5319 149.808 24.7026C149.84 24.9053 149.882 25.1186 149.936 25.3426C150 25.5666 150.032 25.7853 150.032 25.9986C150.032 26.1266 149.978 26.2333 149.872 26.3186C149.765 26.3933 149.653 26.4306 149.536 26.4306C149.28 26.4306 149.109 26.3186 149.024 26.0946C148.864 25.5933 148.624 25.1773 148.304 24.8466C147.994 24.5053 147.557 24.3346 146.992 24.3346H144.112V29.0386C144.517 29.0386 144.912 29.0333 145.296 29.0226C145.69 29.0119 146.085 28.9906 146.48 28.9586C146.874 28.9266 147.253 28.8626 147.616 28.7666C147.765 28.7346 147.92 28.6919 148.08 28.6386C148.25 28.5853 148.41 28.5586 148.56 28.5586C148.688 28.5586 148.752 28.6173 148.752 28.7346C148.752 28.8093 148.73 28.9213 148.688 29.0706C148.656 29.2199 148.629 29.3319 148.608 29.4066C148.554 29.5453 148.501 29.6306 148.448 29.6626C148.394 29.6839 148.298 29.6946 148.16 29.6946C147.904 29.6946 147.653 29.6786 147.408 29.6466C147.002 29.6039 146.592 29.5773 146.176 29.5666C145.76 29.5453 145.344 29.5346 144.928 29.5346C144.693 29.5346 144.496 29.5986 144.336 29.7266C144.186 29.8439 144.112 30.0306 144.112 30.2866V34.2226C144.112 34.4786 144.144 34.6599 144.208 34.7666C144.282 34.8733 144.453 34.9266 144.72 34.9266C145.008 34.9266 145.328 34.9266 145.68 34.9266C146.032 34.9266 146.389 34.9106 146.752 34.8786C147.125 34.8466 147.472 34.7773 147.792 34.6706C148.112 34.5639 148.378 34.4039 148.592 34.1906C148.773 34.0093 148.949 33.7693 149.12 33.4706C149.29 33.1719 149.429 32.9053 149.536 32.6706C149.589 32.5426 149.642 32.4573 149.696 32.4146C149.749 32.3613 149.845 32.3346 149.984 32.3346C150.112 32.3346 150.197 32.3666 150.24 32.4306C150.282 32.4946 150.304 32.5853 150.304 32.7026ZM158.109 26.6546C158.109 25.8653 157.933 25.2573 157.581 24.8306C157.239 24.4039 156.658 24.1906 155.837 24.1906H155.549C155.463 24.1906 155.373 24.1906 155.277 24.1906C155.181 24.1906 155.09 24.2013 155.005 24.2226C154.898 24.2546 154.829 24.3026 154.797 24.3666C154.765 24.4306 154.749 24.5213 154.749 24.6386C154.749 25.2573 154.743 25.8759 154.733 26.4946C154.733 27.1026 154.733 27.7213 154.733 28.3506V29.0066C154.807 29.0173 154.882 29.0279 154.957 29.0386C155.031 29.0386 155.106 29.0386 155.181 29.0386C155.735 29.0386 156.231 28.9746 156.669 28.8466C157.117 28.7079 157.469 28.4679 157.725 28.1266C157.981 27.7746 158.109 27.2839 158.109 26.6546ZM162.173 35.2306C162.173 35.3266 162.082 35.4013 161.901 35.4546C161.73 35.4973 161.522 35.5239 161.277 35.5346C161.042 35.5559 160.818 35.5666 160.605 35.5666C160.391 35.5773 160.247 35.5826 160.173 35.5826C159.767 35.5826 159.399 35.5399 159.069 35.4546C158.749 35.3693 158.477 35.1293 158.253 34.7346C157.762 33.8813 157.282 33.0173 156.813 32.1426C156.343 31.2573 155.874 30.3773 155.405 29.5026L154.733 29.4866C154.733 30.3293 154.733 31.1773 154.733 32.0306C154.743 32.8733 154.749 33.7213 154.749 34.5746C154.749 34.6706 154.775 34.7666 154.829 34.8626C154.882 34.9479 154.962 34.9906 155.069 34.9906C155.197 34.9906 155.325 34.9853 155.453 34.9746C155.581 34.9639 155.709 34.9586 155.837 34.9586C155.89 34.9586 155.938 34.9959 155.981 35.0706C156.034 35.1346 156.061 35.1933 156.061 35.2466C156.061 35.3213 156.039 35.3853 155.997 35.4386C155.965 35.4919 155.911 35.5186 155.837 35.5186C155.741 35.5186 155.65 35.5133 155.565 35.5026C155.479 35.4919 155.394 35.4866 155.309 35.4866C155.117 35.4653 154.925 35.4546 154.733 35.4546C154.541 35.4546 154.349 35.4546 154.157 35.4546C153.698 35.4546 153.234 35.4653 152.765 35.4866C152.306 35.5079 151.842 35.5186 151.373 35.5186C151.191 35.5186 151.101 35.4226 151.101 35.2306C151.101 35.1559 151.133 35.0973 151.197 35.0546C151.261 35.0013 151.33 34.9746 151.405 34.9746C151.511 34.9746 151.618 34.9799 151.725 34.9906C151.831 35.0013 151.938 35.0066 152.045 35.0066C152.194 35.0066 152.322 34.9799 152.429 34.9266C152.535 34.8733 152.589 34.7613 152.589 34.5906V24.7026C152.589 24.5426 152.557 24.4359 152.493 24.3826C152.429 24.3186 152.322 24.2866 152.173 24.2866C152.066 24.2866 151.959 24.2919 151.853 24.3026C151.746 24.3133 151.639 24.3186 151.533 24.3186C151.458 24.3186 151.378 24.2919 151.293 24.2386C151.218 24.1853 151.181 24.1159 151.181 24.0306C151.181 23.8279 151.298 23.7266 151.533 23.7266C151.639 23.7266 151.746 23.7319 151.853 23.7426C151.959 23.7426 152.066 23.7479 152.173 23.7586C152.386 23.7693 152.605 23.7799 152.829 23.7906C153.053 23.7906 153.271 23.7906 153.485 23.7906C153.997 23.7906 154.503 23.7746 155.005 23.7426C155.517 23.6999 156.023 23.6786 156.525 23.6786C156.962 23.6786 157.41 23.7213 157.869 23.8066C158.327 23.8813 158.754 24.0199 159.149 24.2226C159.554 24.4253 159.879 24.7026 160.125 25.0546C160.37 25.3959 160.493 25.8333 160.493 26.3666C160.493 27.0173 160.359 27.5399 160.093 27.9346C159.837 28.3293 159.479 28.6333 159.021 28.8466C158.573 29.0599 158.061 29.2253 157.485 29.3426C157.954 30.1959 158.461 31.0333 159.005 31.8546C159.549 32.6759 160.098 33.4866 160.653 34.2866C160.802 34.4893 160.994 34.6706 161.229 34.8306C161.463 34.9799 161.703 35.0546 161.949 35.0546C162.023 35.0546 162.077 35.0653 162.109 35.0866C162.151 35.0973 162.173 35.1453 162.173 35.2306ZM171.021 32.5106C171.021 33.1293 170.883 33.6466 170.605 34.0626C170.328 34.4679 169.96 34.7879 169.501 35.0226C169.053 35.2573 168.563 35.4226 168.029 35.5186C167.496 35.6146 166.973 35.6626 166.461 35.6626C166.067 35.6626 165.688 35.6039 165.325 35.4866C164.963 35.3799 164.595 35.2573 164.221 35.1186C164.04 35.0546 163.859 35.0173 163.677 35.0066C163.507 34.9853 163.325 34.9746 163.133 34.9746C163.101 34.7186 163.069 34.4679 163.037 34.2226C163.005 33.9666 162.968 33.7106 162.925 33.4546C162.904 33.2733 162.877 33.0973 162.845 32.9266C162.813 32.7559 162.797 32.5853 162.797 32.4146C162.797 32.2653 162.824 32.1426 162.877 32.0466C162.941 31.9506 163.053 31.9026 163.213 31.9026C163.363 31.9026 163.475 31.9346 163.549 31.9986C163.635 32.0519 163.699 32.1479 163.741 32.2866C163.816 32.4786 163.875 32.6759 163.917 32.8786C163.971 33.0813 164.035 33.2839 164.109 33.4866C164.291 33.9879 164.584 34.3879 164.989 34.6866C165.405 34.9853 165.891 35.1346 166.445 35.1346C167.192 35.1346 167.763 34.9213 168.157 34.4946C168.563 34.0573 168.765 33.4706 168.765 32.7346C168.765 32.3079 168.675 31.9559 168.493 31.6786C168.312 31.3906 168.077 31.1453 167.789 30.9426C167.501 30.7399 167.192 30.5479 166.861 30.3666C166.552 30.1959 166.237 30.0359 165.917 29.8866C165.597 29.7373 165.283 29.5826 164.973 29.4226C164.632 29.2413 164.296 29.0173 163.965 28.7506C163.645 28.4733 163.379 28.1586 163.165 27.8066C162.963 27.4439 162.861 27.0546 162.861 26.6386C162.861 25.9346 163.043 25.3533 163.405 24.8946C163.779 24.4359 164.253 24.0946 164.829 23.8706C165.416 23.6466 166.024 23.5346 166.653 23.5346C167.059 23.5346 167.448 23.5933 167.821 23.7106C168.205 23.8173 168.579 23.9453 168.941 24.0946C169.059 24.1373 169.165 24.1693 169.261 24.1906C169.368 24.2119 169.48 24.2226 169.597 24.2226C169.683 24.2226 169.763 24.2226 169.837 24.2226C169.912 24.2119 169.987 24.2013 170.061 24.1906C170.093 24.5319 170.131 24.8733 170.173 25.2146C170.216 25.5559 170.259 25.8973 170.301 26.2386C170.312 26.2919 170.317 26.3506 170.317 26.4146C170.328 26.4679 170.333 26.5213 170.333 26.5746C170.333 26.7239 170.301 26.8626 170.237 26.9906C170.173 27.1079 170.051 27.1666 169.869 27.1666C169.731 27.1666 169.629 27.1346 169.565 27.0706C169.501 27.0066 169.443 26.9159 169.389 26.7986C169.261 26.4679 169.139 26.1426 169.021 25.8226C168.904 25.5026 168.733 25.2039 168.509 24.9266C168.275 24.6279 167.981 24.4093 167.629 24.2706C167.277 24.1213 166.915 24.0466 166.541 24.0466C166.179 24.0466 165.875 24.1479 165.629 24.3506C165.384 24.5426 165.203 24.7933 165.085 25.1026C164.968 25.4119 164.909 25.7319 164.909 26.0626C164.909 26.5746 165.043 26.9746 165.309 27.2626C165.587 27.5399 165.928 27.7959 166.333 28.0306C166.557 28.1479 166.781 28.2653 167.005 28.3826C167.24 28.4893 167.469 28.5959 167.693 28.7026C168.227 28.9479 168.744 29.2466 169.245 29.5986C169.757 29.9399 170.179 30.3506 170.509 30.8306C170.851 31.2999 171.021 31.8599 171.021 32.5106Z" fill="#333333"/>
</g>
<rect x="0.279297" y="13.2635" width="6" height="20.191" fill="black"/>
<path d="M38.1374 9.43751L42.8947 4.37838L56.6411 16.0715L46.9025 15.5981L38.1374 9.43751Z" fill="black"/>
<path d="M39.8236 7.5683L45.1369 12.7485L40.4385 15.9874L31.7522 15.9874L39.8236 7.5683Z" fill="black"/>
<path d="M18.173 0.733878L22.0217 5.32132L4.02857 18.6187L0.278842 13.2635L18.173 0.733878Z" fill="black"/>
<path d="M15.6599 5.52553L18.3324 0.766686L40.4728 16.0104L31.0208 16.161L15.6599 5.52553Z" fill="black"/>
<rect x="6.2793" y="33.4546" width="6" height="9" transform="rotate(-90 6.2793 33.4546)" fill="black"/>
<defs>
<filter id="filter0_i_0_1036" x="21.1753" y="23.3906" width="149.846" height="16.272" filterUnits="userSpaceOnUse" color-interpolation-filters="sRGB">
<feFlood flood-opacity="0" result="BackgroundImageFix"/>
<feBlend mode="normal" in="SourceGraphic" in2="BackgroundImageFix" result="shape"/>
<feColorMatrix in="SourceAlpha" type="matrix" values="0 0 0 0 0 0 0 0 0 0 0 0 0 0 0 0 0 0 127 0" result="hardAlpha"/>
<feOffset dy="4"/>
<feGaussianBlur stdDeviation="2"/>
<feComposite in2="hardAlpha" operator="arithmetic" k2="-1" k3="1"/>
<feColorMatrix type="matrix" values="0 0 0 0 0 0 0 0 0 0 0 0 0 0 0 0 0 0 0.25 0"/>
<feBlend mode="normal" in2="shape" result="effect1_innerShadow_0_1036"/>
</filter>
</defs>
</svg>
