<svg width="48" height="49" viewBox="0 0 48 49" fill="none" xmlns="http://www.w3.org/2000/svg">
<rect x="0.769231" y="1.72358" width="46.4615" height="46.4615" rx="3.23077" stroke="black" stroke-width="1.53846"/>
<g filter="url(#filter0_d_141_469)">
<path d="M19.5 14.4543H15.4091C14.3547 14.4543 13.5 15.3091 13.5 16.3634C13.5 26.9071 22.0473 35.4543 32.5909 35.4543C33.6452 35.4543 34.5 34.5996 34.5 33.5452V29.4543L30.0001 26.4543L27.6666 28.7876C27.2614 29.193 26.6557 29.319 26.1465 29.056C25.2829 28.6098 23.8814 27.7715 22.5 26.4543C21.0856 25.1057 20.2569 23.6525 19.841 22.7732C19.6079 22.2804 19.7428 21.7115 20.1283 21.326L22.5 18.9543L19.5 14.4543Z" stroke="black" stroke-width="1.23077" stroke-linecap="round" stroke-linejoin="round"/>
<path d="M15.4092 14.4543H19.5001L22.5001 18.9543L20.1284 21.326L15.4092 14.4543Z" stroke="black" stroke-width="1.23077" stroke-linecap="round" stroke-linejoin="round"/>
<path d="M34.4999 33.5453C34.4999 34.5996 33.6451 35.4544 32.5908 35.4544L27.6665 28.7877L30 26.4543L34.4999 29.4543V33.5453Z" stroke="black" stroke-width="1.23077" stroke-linecap="round" stroke-linejoin="round"/>
</g>
<defs>
<filter id="filter0_d_141_469" x="8.88477" y="10.8389" width="30.2305" height="30.231" filterUnits="userSpaceOnUse" color-interpolation-filters="sRGB">
<feFlood flood-opacity="0" result="BackgroundImageFix"/>
<feColorMatrix in="SourceAlpha" type="matrix" values="0 0 0 0 0 0 0 0 0 0 0 0 0 0 0 0 0 0 127 0" result="hardAlpha"/>
<feOffset dy="1"/>
<feGaussianBlur stdDeviation="2"/>
<feComposite in2="hardAlpha" operator="out"/>
<feColorMatrix type="matrix" values="0 0 0 0 0.0969792 0 0 0 0 0.127894 0 0 0 0 0.2375 0 0 0 0.08 0"/>
<feBlend mode="normal" in2="BackgroundImageFix" result="effect1_dropShadow_141_469"/>
<feBlend mode="normal" in="SourceGraphic" in2="effect1_dropShadow_141_469" result="shape"/>
</filter>
</defs>
</svg>
